<svg width="1920" height="237" viewBox="0 0 1920 237" fill="none" xmlns="http://www.w3.org/2000/svg">
<path d="M207.72 233L207.394 96.08L140.238 208.876H116.44L49.61 99.014V233H0.0580014V4.79998H43.742L129.154 146.61L213.262 4.79998H256.62L257.272 233H207.72ZM311.413 4.79998H364.225V233H311.413V4.79998ZM527.592 236.912C504.338 236.912 483.256 231.913 464.348 221.916C445.658 211.701 430.879 197.683 420.012 179.862C409.363 161.823 404.038 141.503 404.038 118.9C404.038 96.2973 409.363 76.0853 420.012 58.264C430.879 40.2253 445.658 26.2073 464.348 16.21C483.256 5.99533 504.446 0.887996 527.918 0.887996C547.696 0.887996 565.517 4.36533 581.382 11.32C597.465 18.2747 610.94 28.272 621.806 41.312L587.902 72.608C572.472 54.7867 553.346 45.876 530.526 45.876C516.4 45.876 503.794 49.0273 492.71 55.33C481.626 61.4153 472.933 70 466.63 81.084C460.545 92.168 457.502 104.773 457.502 118.9C457.502 133.027 460.545 145.632 466.63 156.716C472.933 167.8 481.626 176.493 492.71 182.796C503.794 188.881 516.4 191.924 530.526 191.924C553.346 191.924 572.472 182.905 587.902 164.866L621.806 196.162C610.94 209.419 597.465 219.525 581.382 226.48C565.3 233.435 547.37 236.912 527.592 236.912ZM802.866 233L758.856 169.43H756.248H710.282V233H657.47V4.79998H756.248C776.46 4.79998 793.955 8.16865 808.734 14.906C823.73 21.6433 835.249 31.206 843.29 43.594C851.331 55.982 855.352 70.652 855.352 87.604C855.352 104.556 851.223 119.226 842.964 131.614C834.923 143.785 823.404 153.13 808.408 159.65L859.59 233H802.866ZM801.888 87.604C801.888 74.7813 797.759 65.0013 789.5 58.264C781.241 51.3093 769.179 47.832 753.314 47.832H710.282V127.376H753.314C769.179 127.376 781.241 123.899 789.5 116.944C797.759 109.989 801.888 100.209 801.888 87.604ZM1007.71 236.912C984.019 236.912 962.612 231.805 943.487 221.59C924.579 211.375 909.691 197.357 898.825 179.536C888.175 161.497 882.851 141.285 882.851 118.9C882.851 96.5147 888.175 76.4113 898.825 58.59C909.691 40.5513 924.579 26.4247 943.487 16.21C962.612 5.99533 984.019 0.887996 1007.71 0.887996C1031.4 0.887996 1052.7 5.99533 1071.6 16.21C1090.51 26.4247 1105.4 40.5513 1116.27 58.59C1127.13 76.4113 1132.57 96.5147 1132.57 118.9C1132.57 141.285 1127.13 161.497 1116.27 179.536C1105.4 197.357 1090.51 211.375 1071.6 221.59C1052.7 231.805 1031.4 236.912 1007.71 236.912ZM1007.71 191.924C1021.18 191.924 1033.35 188.881 1044.22 182.796C1055.09 176.493 1063.56 167.8 1069.65 156.716C1075.95 145.632 1079.1 133.027 1079.1 118.9C1079.1 104.773 1075.95 92.168 1069.65 81.084C1063.56 70 1055.09 61.4153 1044.22 55.33C1033.35 49.0273 1021.18 45.876 1007.71 45.876C994.234 45.876 982.063 49.0273 971.197 55.33C960.33 61.4153 951.745 70 945.443 81.084C939.357 92.168 936.315 104.773 936.315 118.9C936.315 133.027 939.357 145.632 945.443 156.716C951.745 167.8 960.33 176.493 971.197 182.796C982.063 188.881 994.234 191.924 1007.71 191.924ZM1379.92 233L1379.59 96.08L1312.44 208.876H1288.64L1221.81 99.014V233H1172.26V4.79998H1215.94L1301.35 146.61L1385.46 4.79998H1428.82L1429.47 233H1379.92ZM1660.3 190.62V233H1483.61V4.79998H1656.07V47.18H1536.1V96.732H1642.05V137.808H1536.1V190.62H1660.3ZM1702.33 4.79998H1805.99C1830.77 4.79998 1852.61 9.58132 1871.52 19.144C1890.64 28.4893 1905.42 41.7467 1915.86 58.916C1926.5 76.0853 1931.83 96.08 1931.83 118.9C1931.83 141.72 1926.5 161.715 1915.86 178.884C1905.42 196.053 1890.64 209.419 1871.52 218.982C1852.61 228.327 1830.77 233 1805.99 233H1702.33V4.79998ZM1803.39 189.642C1826.21 189.642 1844.35 183.339 1857.83 170.734C1871.52 157.911 1878.37 140.633 1878.37 118.9C1878.37 97.1667 1871.52 79.9973 1857.83 67.392C1844.35 54.5693 1826.21 48.158 1803.39 48.158H1755.14V189.642H1803.39Z" fill="#2158C3"/>
</svg>
