<svg width="30" height="26" viewBox="0 0 30 26" fill="none" xmlns="http://www.w3.org/2000/svg">
<path d="M21.4381 20.1879C19.8063 20.1879 18.4832 21.4887 18.4832 23.0937C18.4832 24.699 19.8059 26 21.4377 26C23.07 26 24.3926 24.699 24.3926 23.0941C24.3911 21.4896 23.0691 20.1895 21.4381 20.1879ZM21.4381 24.6988C20.5366 24.6988 19.8063 23.9803 19.8063 23.0941C19.8063 22.2076 20.5366 21.4891 21.4377 21.4891C22.3392 21.4887 23.0695 22.2076 23.0695 23.0937C23.0685 23.9797 22.3388 24.6973 21.4381 24.6988Z" fill="black"/>
<path d="M29.3381 4.09892H5.86423L5.45136 2.44698C5.09478 1.00592 3.77939 -0.00607874 2.27173 2.7483e-05H0.661423C0.296151 2.7483e-05 0 0.291293 0 0.650745C0 1.00999 0.296151 1.30126 0.661423 1.30126H2.27173C3.16887 1.29413 3.95343 1.89498 4.16659 2.75229L7.37851 15.6529C7.73696 17.0911 9.05339 18.0986 10.5588 18.0872H24.298C25.8245 18.0992 27.1529 17.0634 27.4894 15.5993L29.9832 4.87908C30.0283 4.68857 29.9814 4.48829 29.8557 4.33624C29.7293 4.18338 29.5387 4.09586 29.3381 4.09892ZM26.1999 15.3134C25.9983 16.1839 25.2059 16.7976 24.298 16.786H10.5588C9.66287 16.7955 8.87789 16.1973 8.6639 15.3416L6.18791 5.40015H28.5081L26.1999 15.3134Z" fill="black"/>
<path d="M12.4901 20.1879C10.8582 20.1879 9.53519 21.4887 9.53519 23.0937C9.53519 24.699 10.858 26 12.4899 26C14.1219 26 15.4447 24.699 15.4447 23.0941C15.4433 21.4896 14.1213 20.1895 12.4901 20.1879ZM12.4901 24.6988C11.5888 24.6988 10.8582 23.9803 10.8582 23.0941C10.8582 22.2076 11.5888 21.4891 12.4899 21.4891C13.3911 21.4887 14.1217 22.2076 14.1217 23.0937C14.1207 23.9797 13.3907 24.6973 12.4901 24.6988Z" fill="black"/>
</svg>
