<svg width="133" height="17" viewBox="0 0 133 17" fill="none" xmlns="http://www.w3.org/2000/svg">
<path d="M14.004 16L13.96 8.982L10.616 14.614H8.328L4.984 9.224V16H0.254V0.599999H4.522L9.538 8.806L14.422 0.599999H18.69L18.734 16H14.004ZM21.2442 0.599999H26.4362V16H21.2442V0.599999ZM36.8996 16.352C35.2716 16.352 33.805 16.0147 32.4996 15.34C31.1943 14.6507 30.1676 13.6973 29.4196 12.48C28.6863 11.248 28.3196 9.85467 28.3196 8.3C28.3196 6.74533 28.6863 5.35933 29.4196 4.142C30.1676 2.91 31.1943 1.95667 32.4996 1.282C33.805 0.592666 35.2716 0.248 36.8996 0.248C38.3956 0.248 39.7303 0.512 40.9036 1.04C42.077 1.568 43.045 2.33067 43.8076 3.328L40.5296 6.254C39.5763 5.05133 38.4543 4.45 37.1636 4.45C36.0783 4.45 35.2056 4.802 34.5456 5.506C33.8856 6.19533 33.5556 7.12667 33.5556 8.3C33.5556 9.47333 33.8856 10.412 34.5456 11.116C35.2056 11.8053 36.0783 12.15 37.1636 12.15C38.4543 12.15 39.5763 11.5487 40.5296 10.346L43.8076 13.272C43.045 14.2693 42.077 15.032 40.9036 15.56C39.7303 16.088 38.3956 16.352 36.8996 16.352ZM51.9067 12.128H50.4987V16H45.3067V0.599999H52.7207C54.1434 0.599999 55.3827 0.834666 56.4387 1.304C57.4947 1.77333 58.3087 2.448 58.8807 3.328C59.4527 4.208 59.7387 5.23467 59.7387 6.408C59.7387 7.508 59.4894 8.46867 58.9907 9.29C58.4921 10.1113 57.7734 10.764 56.8347 11.248L60.0687 16H54.5247L51.9067 12.128ZM54.5027 6.408C54.5027 5.836 54.3267 5.396 53.9747 5.088C53.6227 4.76533 53.0947 4.604 52.3907 4.604H50.4987V8.212H52.3907C53.0947 8.212 53.6227 8.058 53.9747 7.75C54.3267 7.42733 54.5027 6.98 54.5027 6.408ZM69.7733 16.352C68.116 16.352 66.6273 16.0073 65.3073 15.318C63.9873 14.6287 62.9533 13.6753 62.2053 12.458C61.4573 11.226 61.0833 9.84 61.0833 8.3C61.0833 6.76 61.4573 5.38133 62.2053 4.164C62.9533 2.932 63.9873 1.97133 65.3073 1.282C66.6273 0.592666 68.116 0.248 69.7733 0.248C71.4306 0.248 72.9193 0.592666 74.2393 1.282C75.5593 1.97133 76.5933 2.932 77.3413 4.164C78.0893 5.38133 78.4633 6.76 78.4633 8.3C78.4633 9.84 78.0893 11.226 77.3413 12.458C76.5933 13.6753 75.5593 14.6287 74.2393 15.318C72.9193 16.0073 71.4306 16.352 69.7733 16.352ZM69.7733 12.15C70.4186 12.15 70.998 11.996 71.5113 11.688C72.0393 11.3653 72.4573 10.918 72.7653 10.346C73.0733 9.75933 73.2273 9.07733 73.2273 8.3C73.2273 7.52267 73.0733 6.848 72.7653 6.276C72.4573 5.68933 72.0393 5.242 71.5113 4.934C70.998 4.61133 70.4186 4.45 69.7733 4.45C69.128 4.45 68.5413 4.61133 68.0133 4.934C67.5 5.242 67.0893 5.68933 66.7813 6.276C66.4733 6.848 66.3193 7.52267 66.3193 8.3C66.3193 9.07733 66.4733 9.75933 66.7813 10.346C67.0893 10.918 67.5 11.3653 68.0133 11.688C68.5413 11.996 69.128 12.15 69.7733 12.15ZM94.0978 16L94.0538 8.982L90.7097 14.614H88.4218L85.0778 9.224V16H80.3478V0.599999H84.6158L89.6318 8.806L94.5158 0.599999H98.7838L98.8278 16H94.0978ZM114.142 12.084V16H101.338V0.599999H113.856V4.516H106.442V6.32H112.954V10.06H106.442V12.084H114.142ZM116.141 0.599999H123.731C125.447 0.599999 126.957 0.915333 128.263 1.546C129.583 2.162 130.602 3.04933 131.321 4.208C132.054 5.36667 132.421 6.73067 132.421 8.3C132.421 9.86933 132.054 11.2333 131.321 12.392C130.602 13.5507 129.583 14.4453 128.263 15.076C126.957 15.692 125.447 16 123.731 16H116.141V0.599999ZM123.511 11.952C124.625 11.952 125.513 11.6367 126.173 11.006C126.847 10.3607 127.185 9.45867 127.185 8.3C127.185 7.14133 126.847 6.24667 126.173 5.616C125.513 4.97067 124.625 4.648 123.511 4.648H121.333V11.952H123.511Z" fill="white"/>
</svg>
