<svg width="9" height="9" viewBox="0 0 9 9" fill="none" xmlns="http://www.w3.org/2000/svg">
<path d="M8.40213 6.77677e-07H0.378179C0.236658 -0.000267017 0.106916 0.0787919 0.042223 0.204697C-0.023362 0.332298 -0.0118512 0.485954 0.071937 0.602491L3.01157 4.74354C3.01256 4.74497 3.01363 4.7463 3.01461 4.74773C3.12142 4.89193 3.17915 5.06656 3.17951 5.24609V8.62224C3.17888 8.72227 3.21814 8.81829 3.28864 8.88923C3.35913 8.96016 3.45496 8.99996 3.5549 8.99996C3.60577 8.99996 3.656 8.98979 3.70294 8.97034L5.35479 8.34045C5.50282 8.2953 5.60107 8.15565 5.60107 7.98745V5.24609C5.60133 5.06664 5.65916 4.89193 5.76588 4.74773C5.76686 4.7463 5.76793 4.74497 5.76891 4.74354L8.70846 0.602312C8.79225 0.485865 8.80376 0.332298 8.73817 0.204697C8.67348 0.0787919 8.54374 -0.000267017 8.40213 6.77677e-07ZM5.39753 4.47709C5.23334 4.6999 5.14456 4.96929 5.14402 5.24609V7.93195L3.63637 8.50678V5.24609C3.63584 4.96929 3.54705 4.6999 3.38278 4.47709L0.528891 0.456865H8.2515L5.39753 4.47709Z" fill="black"/>
</svg>
