<svg width="61" height="31" viewBox="0 0 61 31" fill="none" xmlns="http://www.w3.org/2000/svg">
<path fill-rule="evenodd" clip-rule="evenodd" d="M31.6869 0.934664C43.2871 -2.19181 53.3517 2.99753 53.1936 9.50489C50.6133 6.87729 48.6942 5.90118 44.5503 4.91867C49.152 6.80307 50.3749 8.05376 52.1768 10.3387C47.6245 9.88901 43.5455 7.18856 39.9318 4.79617C36.8458 2.75308 34.0991 0.934664 31.6869 0.934664ZM49.9305 18.9032C50.1498 18.0238 50.3813 17.2207 50.6368 16.474L50.6509 16.4772L50.6475 16.4611L50.6452 16.4498C51.8723 12.877 53.6555 10.5964 57.3119 7.41209C52.3638 10.6602 50.1945 12.9913 48.4668 17.1493C47.5296 16.9697 46.5975 16.8799 45.6706 16.8799C44.1656 16.8799 42.9182 17.4235 41.9285 18.5106C40.9523 19.5853 40.4642 20.8392 40.4642 22.2722C40.4642 23.3223 40.7421 24.2117 41.298 24.9406C41.8539 25.6695 42.6403 26.0339 43.6572 26.0339C44.0639 26.0339 44.4503 25.9474 44.8164 25.7744C45.535 25.4286 46.3755 24.4897 47.3382 22.9578C47.3518 23.2914 47.3857 23.8596 47.4399 24.6627C47.5077 25.4657 47.5416 26.0771 47.5416 26.4972C47.5416 27.3496 47.2976 28.0475 46.8094 28.591C46.3213 29.1347 45.6434 29.4064 44.7757 29.4064C44.2741 29.4064 43.8402 29.2458 43.4741 28.9246C43.108 28.6034 42.925 28.2205 42.925 27.7757C42.925 27.6522 42.9453 27.5101 42.986 27.3495C42.8233 27.3248 42.6878 27.3124 42.5793 27.3124C42.0776 27.3124 41.6438 27.4669 41.2777 27.7757C40.9116 28.0846 40.7286 28.4613 40.7286 28.9061C40.7286 29.6225 41.0743 30.1476 41.7658 30.4811C42.4708 30.827 43.3114 31 44.2876 31C45.9417 31 47.2976 30.4997 48.3551 29.499C49.4126 28.5107 49.9414 27.2568 49.9414 25.7374C49.9414 25.305 49.8939 24.6441 49.799 23.7546C49.7041 22.8529 49.6567 22.0993 49.6567 21.494C49.6567 20.6415 49.748 19.7779 49.9305 18.9032ZM15.2733 22.8467L15.4767 18.8812C15.4767 17.5471 14.7921 16.8799 13.4226 16.8799C12.6363 16.8799 11.8431 17.2073 11.0432 17.862C10.2568 18.5168 9.61287 19.2766 9.11112 20.1413C9.15182 19.7336 9.17215 19.363 9.17215 19.0295C9.17215 17.6953 8.48749 17.0282 7.11804 17.0282C6.34524 17.0282 5.57243 17.3309 4.79961 17.9362C4.0268 18.5291 3.38962 19.2333 2.88791 20.0486C2.98288 19.1839 3.03026 18.6403 3.03026 18.4179C3.03026 17.9856 2.87438 17.6397 2.5625 17.3803C2.26426 17.1208 1.87104 16.9911 1.38294 16.9911C0.89484 16.9911 0.433897 17.0652 0 17.2135C0.311873 18.4242 0.467759 19.4989 0.467759 20.4377C0.467759 21.3643 0.406746 22.3031 0.284722 23.2543C0.162698 24.1932 0.101686 24.8479 0.101686 25.2186C0.101686 25.5769 0.244048 25.8609 0.52877 26.0709C0.82712 26.2686 1.20672 26.3674 1.66766 26.3674C2.14224 26.3674 2.59647 26.2933 3.03026 26.1451C2.82689 25.2927 2.69134 24.3353 2.62352 23.2729C2.65067 22.8652 2.84723 22.3216 3.2133 21.6422C3.593 20.9504 4.05394 20.3203 4.59624 19.7521C5.13863 19.1839 5.61992 18.8997 6.04019 18.8997C6.65028 18.8997 6.95539 19.2085 6.95539 19.8263C6.95539 20.1228 6.8808 20.8516 6.73164 22.0128C6.5826 23.174 6.50796 24.0017 6.50796 24.4959C6.50796 25.6695 7.08423 26.2563 8.23664 26.2563C8.58917 26.2563 9.02305 26.1821 9.53822 26.0339C9.22647 25.0703 9.0366 24.1005 8.96879 23.1246C8.96879 22.4823 9.38912 21.5928 10.2297 20.4563C11.0839 19.3197 11.816 18.7515 12.4261 18.7515C12.982 18.7515 13.2599 19.0603 13.2599 19.678C13.2599 19.9992 13.1854 20.7898 13.0362 22.0499C12.8871 23.2976 12.8125 24.1871 12.8125 24.7183C12.8125 25.8918 13.3888 26.4786 14.5412 26.4786C15.0293 26.4786 15.4632 26.4045 15.8428 26.2563C15.4632 25.1815 15.2733 24.0449 15.2733 22.8467ZM26.658 21.9202C26.658 20.4871 26.841 19.0603 27.2071 17.6397C25.5801 17.1332 23.9938 16.8799 22.4482 16.8799C20.9161 16.8799 19.6687 17.4791 18.7061 18.6774C17.7435 19.8633 17.2621 21.2469 17.2621 22.8282C17.2621 23.8658 17.5468 24.7367 18.1163 25.4409C18.6858 26.1327 19.4857 26.4786 20.5161 26.4786C20.95 26.4786 21.3703 26.3674 21.777 26.1451C22.6719 25.6509 23.6006 24.465 24.5632 22.5873C24.387 23.5014 24.2989 24.2241 24.2989 24.7553C24.2989 25.2741 24.4005 25.6756 24.6039 25.9598C24.8073 26.2315 25.1666 26.3674 25.6818 26.3674C26.197 26.3674 26.6987 26.2933 27.1867 26.1451C26.8343 24.7491 26.658 23.3408 26.658 21.9202ZM22.7126 18.455C23.2142 18.455 23.8244 18.5538 24.5429 18.7515C24.1091 20.2587 23.5193 21.6484 22.7735 22.9208C22.0279 24.1932 21.4178 24.8294 20.9432 24.8294C20.5364 24.8294 20.2314 24.5392 20.028 23.9585C19.8382 23.3779 19.7433 22.8034 19.7433 22.2352C19.7433 21.1605 19.9738 20.1042 20.4348 19.0665C20.9365 18.6588 21.6957 18.455 22.7126 18.455ZM38.2691 22.9578L38.4725 18.8812C38.4725 17.5471 37.7877 16.8799 36.4184 16.8799C35.5912 16.8799 34.7643 17.2135 33.9372 17.8806C33.1101 18.5354 32.439 19.3012 31.9238 20.1783C32.0322 19.3382 32.0865 18.7268 32.0865 18.3439C32.0865 17.9609 31.9305 17.6397 31.6188 17.3803C31.3204 17.1208 30.9273 16.9911 30.4392 16.9911C29.9511 16.9911 29.4901 17.0652 29.0562 17.2135C29.368 18.4242 29.524 19.4989 29.524 20.4377C29.524 21.3643 29.463 22.3031 29.341 23.2543C29.219 24.1932 29.1579 24.8479 29.1579 25.2186C29.1579 25.5769 29.3003 25.8609 29.585 26.0709C29.8833 26.2686 30.2629 26.3674 30.7239 26.3674C31.1984 26.3674 31.6526 26.2933 32.0865 26.1451C31.8695 25.2679 31.734 24.3476 31.6798 23.3841C31.7475 22.9146 31.978 22.3216 32.3712 21.6052C32.778 20.8763 33.2593 20.2216 33.8152 19.6409C34.3846 19.048 34.8931 18.7515 35.3405 18.7515C35.9506 18.7515 36.2557 19.0603 36.2557 19.678C36.2557 19.9992 36.1811 20.7898 36.032 22.0499C35.8828 23.2976 35.8083 24.1871 35.8083 24.7183C35.8083 25.8918 36.3844 26.4786 37.537 26.4786C38.025 26.4786 38.4588 26.4045 38.8385 26.2563C38.4588 25.1815 38.2691 24.082 38.2691 22.9578ZM45.6909 18.455C46.396 18.455 47.1078 18.5538 47.8263 18.7515C47.3518 20.1104 46.7281 21.389 45.9553 22.5873C45.1825 23.7855 44.5656 24.3847 44.1046 24.3847C43.6978 24.3847 43.4063 24.1129 43.23 23.5694C43.0538 23.0134 42.9657 22.4452 42.9657 21.8646C42.9657 20.864 43.2097 19.9189 43.6978 19.0295C44.3215 18.6465 44.9859 18.455 45.6909 18.455ZM52.5397 25.4039C53.2447 26.1945 54.3429 26.5898 55.8343 26.5898C57.3257 26.5898 58.5596 26.0895 59.5357 25.0888C60.5119 24.0759 61 22.8467 61 21.4013C61 18.313 59.4951 16.7687 56.4851 16.7687C55.0208 16.7687 53.8209 17.2938 52.8854 18.3439C51.9499 19.3938 51.4822 20.6354 51.4822 22.0684C51.4822 23.489 51.8346 24.6008 52.5397 25.4039ZM54.004 20.9566C54.004 20.2401 54.126 19.5236 54.37 18.8071C54.953 18.4983 55.6377 18.3439 56.4241 18.3439C57.7934 18.3439 58.4782 19.6595 58.4782 22.2908C58.4782 23.2173 58.329 23.9029 58.0308 24.3476C57.746 24.7923 57.1426 25.0147 56.2207 25.0147C55.3123 25.0147 54.7022 24.6133 54.3904 23.8102C54.2412 23.4149 54.1395 23.0196 54.0853 22.6243C54.031 22.229 54.004 21.6731 54.004 20.9566ZM51.6372 15.4773C54.1229 17.3578 58.8762 15.5564 60.9218 10.9328C60.2432 11.7118 58.7829 12.0897 57.1414 12.5144C55.2211 13.0112 53.0529 13.5721 51.5988 14.9146C52.9939 14.9753 53.824 14.9322 55.8505 13.9767C54.3034 15.038 53.3843 15.383 51.6372 15.4773Z" fill="#AFAFAF"/>
</svg>
